Coordinates
version=1
nRows=19
nColumns=36
inDegrees=yes

Units are S.I. units (second, meters, Newtons, ...)
If the header above contains a line with 'inDegrees', this indicates whether rotational values are in degrees (yes) or radians (no).

endheader
time	pelvis_tilt	pelvis_list	pelvis_rotation	pelvis_tx	pelvis_ty	pelvis_tz	hip_flexion_r	hip_adduction_r	hip_rotation_r	knee_angle_r	knee_angle_r_beta	ankle_angle_r	subtalar_angle_r	mtp_angle_r	hip_flexion_l	hip_adduction_l	hip_rotation_l	knee_angle_l	knee_angle_l_beta	ankle_angle_l	subtalar_angle_l	mtp_angle_l	lumbar_extension	lumbar_bending	lumbar_rotation	arm_flex_r	arm_add_r	arm_rot_r	elbow_flex_r	pro_sup_r	arm_flex_l	arm_add_l	arm_rot_l	elbow_flex_l	pro_sup_l
     29.81666670	      4.89199431	      3.80028425	    185.31259341	      0.70671496	      1.06985558	      0.83750941	     32.47364845	     -2.06801367	     -8.85897667	     40.83279547	      0.71266672	     -7.32354842	     -7.54336664	     -7.49999987	     32.05960202	     -7.00780730	     -7.82210305	     38.53635370	      0.67258625	    -11.09542192	     -2.72823847	     -7.49999987	    -13.92120427	      5.91875996	     -0.20539342	     13.85337793	     -9.28568956	     -0.87609607	     19.39928197	     85.08241558	     16.44679202	     -4.31116685	      2.19288584	     19.41829483	     88.38554693
     29.83333330	      5.19212803	      3.55516304	    185.42124295	      0.70858973	      1.07004547	      0.83699277	     32.66035736	     -2.75499192	     -7.63113106	     38.10441456	      0.66504749	     -7.33584381	     -8.38079112	     -7.49999987	     32.35335461	     -7.45244416	     -7.53579860	     38.17804711	      0.66633262	     -9.19982249	     -1.94879531	     -7.49999987	    -13.94942720	      5.60453572	     -0.09301274	     13.24103243	     -8.36495518	     -2.11129789	     19.22788176	     84.51799646	     16.49884222	     -3.77025061	      2.68013113	     19.96181791	     87.64681117
     29.85000000	      5.43499587	      3.54868642	    185.62548107	      0.70942618	      1.07148562	      0.83687919	     32.58021529	     -3.14567554	     -6.39229347	     35.36488128	      0.61723362	     -6.70687880	     -8.38742163	     -7.49999987	     32.25230245	     -8.09768789	     -7.33926397	     37.40927704	      0.65291506	     -7.18558224	     -1.19963009	     -7.49999987	    -13.87153792	      5.58785873	      0.18113612	     12.62661366	     -7.58215776	     -2.61418232	     18.56671869	     84.34416047	     16.44687347	     -3.12000456	      2.78458666	     20.30830413	     87.49184884
     29.86666670	      5.54693896	      3.80421940	    186.00902930	      0.71019069	      1.07312663	      0.83746097	     31.84183572	     -3.31994369	     -5.74844900	     32.54816667	      0.56807267	     -6.21476619	     -7.22467967	     -7.49999987	     31.84529020	     -8.88683139	     -6.90933104	     36.34521680	      0.63434370	     -5.56484150	     -0.98405404	     -7.49999987	    -13.63200229	      5.88750255	      0.51921371	     11.96400947	     -6.89523647	     -3.34639229	     17.51661413	     84.09557368	     16.28581804	     -2.40254224	      2.87348287	     20.33276858	     87.35732459
     29.88333330	      5.73455582	      4.16210857	    186.20463345	      0.71096181	      1.07535136	      0.83831895	     30.79381869	     -3.34035824	     -5.55129180	     29.64576326	      0.51741618	     -6.40036862	     -5.03551719	     -7.49999987	     31.29782870	     -9.77246402	     -6.56281698	     34.81600825	      0.60765398	     -4.99956663	     -1.03121031	     -7.49999987	    -13.29575272	      6.37844825	      0.91819820	     11.51400520	     -6.27106970	     -3.90825149	     16.76233471	     83.86365978	     15.98363039	     -1.72980664	      2.89254651	     20.06608807	     87.19519854
     29.90000000	      5.95144586	      4.82365761	    186.17114167	      0.71111552	      1.07775950	      0.83904955	     29.81760133	     -2.95270014	     -5.36922101	     27.07670322	      0.47257762	     -5.77796613	     -2.71749681	     -7.49999987	     30.75890644	    -10.91933344	     -6.10711726	     32.99425666	      0.57585841	     -4.05863541	     -0.63273726	     -7.49999987	    -13.08212307	      7.24932408	      1.45750381	     11.20768989	     -5.92700934	     -4.33363840	     16.18065652	     83.66845736	     15.66337421	     -1.04821187	      2.84028688	     20.08298210	     87.04124336
     29.91666670	      5.84797363	      5.08770081	    186.48270955	      0.70970373	      1.07741268	      0.83920274	     27.86809955	     -2.78664538	     -5.20122043	     24.48490483	      0.42734221	     -3.50072837	     -0.48937552	     -7.49999987	     29.84911370	    -11.45569127	     -5.20512982	     31.11122081	      0.54299324	     -2.48074814	      0.25647742	     -7.49999987	    -13.12630060	      7.64846180	      1.53677758	     10.94939848	     -5.45536319	     -4.93168505	     15.75958963	     83.34964176	     15.43192579	     -0.56638171	      2.66723052	     20.08574575	     86.77533111
     29.93333330	      6.24297276	      5.43502049	    186.61369097	      0.70795088	      1.07536778	      0.83851357	     27.33113681	     -2.60950305	     -4.55540477	     23.13482547	      0.40377888	     -2.76984440	      0.42559838	     -7.49999987	     29.32816655	    -12.04579767	     -4.28044999	     29.06777112	      0.50732831	     -0.78729949	      1.06301392	     -7.49999987	    -12.63279799	      7.97982429	      1.60123929	     10.57585226	     -5.11599765	     -5.00867481	     15.58434286	     83.27934066	     15.12251543	     -0.23678326	      2.62668355	     20.10322009	     86.69689972
     29.95000000	      6.05711452	      6.19913432	    187.19915754	      0.70685181	      1.07300616	      0.83768398	     26.59079412	     -2.15642407	     -4.64555990	     22.83058589	      0.39846889	     -0.98374414	      2.25577864	     -7.49999987	     29.05906810	    -13.12197189	     -2.71769633	     28.25624107	      0.49316444	      2.71193755	      2.91223384	     -7.49999987	    -13.16147019	      8.76992908	      1.56306905	     10.66950179	     -4.79554732	     -5.32856879	     15.33268092	     83.03343771	     15.31479598	      0.06606413	      2.32709975	     20.20464874	     86.43031250
     29.96666670	      6.02922831	      6.62108137	    188.07481893	      0.70738710	      1.06958097	      0.83672303	     26.32836250	     -2.05098132	     -4.35715547	     23.24878789	      0.40576790	      0.94644894	      3.32287081	     -7.49999987	     29.58805284	    -13.77973797	     -0.50246719	     28.51177609	      0.49762437	      6.56376549	      3.15113862	     -7.49999987	    -13.62472370	      9.05222952	      1.24683038	     10.75286454	     -4.39135396	     -5.67202130	     15.41587741	     82.66968941	     15.59446942	      0.15979649	      1.98180961	     20.49617052	     86.04809479
     29.98333330	      6.03720745	      7.04715610	    188.64686087	      0.70850656	      1.06343534	      0.83563721	     26.37481166	     -1.83113054	     -4.00285680	     24.16174378	      0.42170198	      3.40329804	      3.85770964	     -7.49999987	     30.10573922	    -14.49202306	      1.51453255	     29.22639279	      0.51009678	      9.64772611	      3.01320387	     -7.49999987	    -14.04137639	      9.39202038	      0.86259990	     11.10762783	     -3.92411594	     -6.09534576	     15.54986167	     80.55293772	     15.74189763	      0.24541771	      1.32973954	     21.02420116	     83.72617410
     30.00000000	      6.13071651	      7.52392945	    189.10589542	      0.70874596	      1.05330814	      0.83350105	     26.42963325	     -1.36254463	     -3.77337184	     25.32578309	      0.44201830	      6.61713183	      4.31534849	     -7.49999987	     31.11486112	    -15.26060674	      3.55565541	     30.96995621	      0.54052771	     12.58781225	      2.88378662	     -7.49999987	    -14.15128809	      9.70258392	      0.95285533	     11.36586418	     -3.63555182	     -6.15283894	     15.47828891	     78.70757529	     15.90766839	      0.35632989	      1.03065101	     21.86240104	     81.66449285
     30.01666670	      6.44405008	      7.81650816	    189.55505603	      0.70748579	      1.04326441	      0.83135712	     27.13828610	     -1.28593125	     -4.10510416	     27.43386458	      0.47881126	     10.28645849	      5.28405140	     -7.49999987	     32.61444192	    -15.57755373	      5.76486540	     33.48250868	      0.58438002	     15.56561818	      2.55103858	     -7.49999987	    -13.96021669	      9.83842526	      0.76791300	     11.60800708	     -3.44956431	     -5.12262133	     15.64435007	     77.88847356	     16.32985882	      0.38623900	      1.09303865	     21.85572263	     80.87159144
     30.03333330	      6.73758691	      8.14069631	    189.84633527	      0.70451441	      1.03701384	      0.83030690	     27.93969387	     -1.21702961	     -4.63498108	     30.00040087	      0.52360577	     13.90811183	      6.46746782	     -7.49999987	     34.13374068	    -15.82344178	      7.81322138	     36.45663139	      0.63628825	     18.49932968	      2.21530922	     -7.49999987	    -13.73756170	      9.98182616	      0.71179546	     11.83279480	     -3.21644639	     -4.94702681	     15.74700499	     78.18269540	     16.75588339	      0.41978860	      0.82493060	     21.79846232	     81.23177153
     30.05000000	      6.98279453	      8.34846871	    189.94524755	      0.70016266	      1.03677986	      0.83121139	     28.41955884	     -1.21724490	     -4.93673288	     32.30416834	      0.56381410	     17.03086848	      7.23844621	     -7.49999987	     34.96544352	    -15.93717369	      9.40420517	     38.85292243	      0.67811142	     20.12434591	      1.59585519	     -7.49999987	    -13.48440740	     10.09261486	      0.62955503	     11.99931409	     -3.00296529	     -4.82256165	     15.76538073	     78.41348414	     17.01032077	      0.42565768	      0.48202559	     21.46135569	     81.47650071
     30.06666670	      7.34730579	      8.43182299	    190.09793318	      0.69402648	      1.03726227	      0.83271876	     28.54078422	     -1.37917418	     -5.13484539	     33.99343020	      0.59329728	     19.05519372	      8.19383341	     -7.49999987	     35.39519253	    -15.86705806	     10.72129107	     40.62141059	      0.70897736	     20.58104842	      0.54006484	     -7.49999987	    -12.90413769	     10.19727142	      0.27115594	     12.32195989	     -2.87890276	     -4.18161366	     15.22928590	     79.93420438	     17.25337968	      0.56155255	     -1.10321641	     20.22370741	     83.29723899
     30.08333330	      7.35323430	      8.60668686	    190.04758538	      0.68375252	      1.03697985	      0.83338535	     28.65145997	     -1.33030702	     -4.70952680	     36.17325745	      0.63134244	     19.88094788	      7.93951918	     -7.49999987	     35.11845767	    -16.20394042	     11.42330295	     42.13133576	      0.73533053	     20.96776443	     -0.22820070	     -7.49999987	    -13.10859251	     10.46318680	      0.34277986	     12.66319097	     -2.86273625	     -4.17039950	     15.33239766	     79.94121210	     17.15681067	      0.48035126	     -1.15257193	     20.00936478	     83.30686932
     30.10000000	      7.73977914	      8.68613925	    190.04767449	      0.66811128	      1.03376997	      0.83409021	     28.97968435	     -1.38879735	     -3.90471037	     38.56001438	      0.67299921	     21.22537270	      7.70997607	     -7.49999987	     34.90364198	    -16.12297097	     12.68364478	     43.68757919	      0.76249210	     20.44276632	     -2.64743963	     -7.49999987	    -12.27957588	     10.48294852	      0.32890150	     12.75539451	     -2.91102452	     -3.94961994	     14.67481031	     80.06019720	     16.93893378	      0.56935655	     -1.44699162	     18.43779865	     83.31949272
     30.11666670	      7.47783509	      8.70405649	    190.20387101	      0.65098085	      1.02975066	      0.83485022	     28.21003541	     -1.20135352	     -2.77236696	     40.61744300	      0.70890811	     20.51573831	      7.16992596	     -7.49999987	     33.80638213	    -16.03354697	     14.13052006	     45.48941987	      0.79394015	     19.90792750	     -5.01742790	     -7.49999987	    -11.66050452	     10.38584809	      0.38542767	     12.67165190	     -3.01579188	     -3.59571067	     13.94512211	     80.18638110	     16.54672408	      0.61547039	     -1.65488976	     16.79245450	     83.31547166
